<svg t="1713528328899" class="icon" viewBox="0 0 1024 1024" version="1.1" xmlns="http://www.w3.org/2000/svg" p-id="6713" width="200" height="200"><path d="M169.984 121.856h141.824c23.552 0 44.544 12.8 55.808 33.28l33.792 61.44c11.264 20.48 32.768 33.28 56.32 33.28h368.128c35.328 0 64 28.672 64 64v5.12l-25.088 320c-2.56 33.28-30.208 58.88-64 58.88H189.44c-34.304 0-62.464-27.136-64-61.44l-18.944-448c-1.536-35.328 26.112-65.024 60.928-66.56h2.56z" fill="#B7D7FF" p-id="6714"></path><path d="M135.68 377.856h752.64c35.328 0 64 28.672 64 64 0 2.56 0 4.608-0.512 7.168l-49.664 448c-3.584 32.256-31.232 56.832-63.488 56.832H185.344c-32.768 0-59.904-24.576-63.488-56.832l-49.664-448c-4.096-35.328 21.504-66.56 56.32-70.656 2.56-0.512 4.608-0.512 7.168-0.512z m216.576 128c-17.92 0-31.744 14.336-31.744 31.744 0 17.92 14.336 31.744 31.744 31.744h320c17.92 0 31.744-14.336 31.744-31.744 0-17.92-14.336-31.744-31.744-31.744H352.256z" fill="#2B8CFF" p-id="6715"></path></svg>